<?xml version="1.0" encoding="UTF-8"?>
<svg xmlns="http://www.w3.org/2000/svg" xmlns:xlink="http://www.w3.org/1999/xlink" width="6461px" height="1240px" viewBox="0 0 6461 1240" version="1.1">
<g id="surface1">
<path style=" stroke:none;fill-rule:nonzero;fill:rgb(0%,0%,0%);fill-opacity:1;" d="M 1483.101562 1227.472656 C 1527.019531 1216.449219 1571.828125 1178.714844 1596.074219 1132.339844 C 1613.988281 1098.070312 1618.535156 1039.261719 1606.480469 997.796875 C 1596.117188 962.144531 1564.699219 919.074219 1534.4375 899.042969 C 1487.035156 867.660156 1487.203125 867.675781 1175.0625 869.367188 C 890.519531 870.90625 890.519531 870.90625 860.96875 885.417969 C 826.765625 902.214844 787.753906 940.046875 773.640625 970.105469 C 730.003906 1063.050781 764.421875 1164.496094 856.894531 1215.496094 C 885.296875 1231.160156 885.296875 1231.160156 1156.789062 1233.960938 C 1442.164062 1236.90625 1445.800781 1236.832031 1483.101562 1227.472656 Z M 898.316406 1187.121094 C 860.75 1175.695312 829.359375 1148.292969 809.375 1109.488281 C 776.664062 1045.96875 803.535156 966.878906 871.378906 926.996094 C 895.738281 912.675781 895.738281 912.675781 1173.859375 911.195312 C 1360.503906 910.203125 1458.835938 911.5625 1472.835938 915.332031 C 1500.039062 922.65625 1544.535156 959.332031 1558.300781 985.769531 C 1565.722656 1000.03125 1569.761719 1019.21875 1571.03125 1046.273438 C 1572.636719 1080.539062 1571.101562 1089.425781 1559.65625 1112.007812 C 1544.5625 1141.796875 1516.960938 1168.09375 1486.054688 1182.132812 C 1466.242188 1191.132812 1446.433594 1191.75 1188.117188 1191.4375 C 1035.921875 1191.253906 905.515625 1189.3125 898.316406 1187.121094 Z M 1694.730469 1230.238281 C 1702.304688 1222.660156 1703.234375 1211.234375 1701.628906 1145.394531 L 1699.773438 1069.304688 L 2083.519531 1066.695312 C 2467.265625 1064.085938 2467.265625 1064.085938 2468.832031 1050.585938 C 2469.695312 1043.160156 2467.035156 1034.289062 2462.914062 1030.871094 C 2457.246094 1026.167969 2364.140625 1025.007812 2078.90625 1026.097656 C 1830.691406 1027.046875 1702.1875 1025.757812 1701.808594 1022.316406 C 1699.949219 1005.503906 1701.835938 914.09375 1704.085938 911.84375 C 1705.574219 910.359375 1875.761719 909.449219 2082.289062 909.824219 C 2489.433594 910.558594 2473.046875 911.699219 2468.96875 882.941406 C 2467.265625 870.90625 2467.265625 870.90625 2068.152344 869.570312 C 1848.636719 868.832031 1667.230469 870.035156 1665.023438 872.242188 C 1662.820312 874.449219 1660.476562 955.695312 1659.824219 1052.785156 C 1658.824219 1201.648438 1659.816406 1230.066406 1666.152344 1234.074219 C 1677.226562 1241.082031 1684.921875 1240.046875 1694.730469 1230.238281 Z M 3777.757812 1228.527344 C 3785.582031 1219.882812 3786.195312 1215.800781 3781.289062 1205.03125 C 3775.351562 1192 3775.351562 1192 3393.574219 1192 L 3011.800781 1192 L 3013.625 1033.183594 C 3014.625 945.832031 3013.789062 872.703125 3011.761719 870.675781 C 3005.359375 864.273438 2980.539062 866.6875 2975.800781 874.167969 C 2973.296875 878.117188 2971.214844 958.007812 2971.171875 1051.699219 C 2971.109375 1188.070312 2972.496094 1223.210938 2978.113281 1227.875 C 2983.101562 1232.015625 3094.507812 1234.097656 3363.160156 1235.074219 C 3571.078125 1235.832031 3747.289062 1237.023438 3754.742188 1237.71875 C 3762.929688 1238.488281 3772.035156 1234.851562 3777.757812 1228.527344 Z M 3866.589844 1230.320312 C 3873.855469 1223.050781 3874.980469 1212.285156 3873.542969 1163.75 L 3871.828125 1105.855469 L 4233.324219 1104.511719 L 4594.824219 1103.171875 L 4594.824219 1142.882812 C 4594.824219 1188.53125 4603.484375 1211.71875 4625.359375 1224.640625 C 4637.621094 1231.882812 4657.46875 1233.453125 4744.96875 1234.097656 C 4802.667969 1234.519531 4852.398438 1233.308594 4855.484375 1231.398438 C 4859.28125 1229.054688 4861.097656 1177.421875 4861.097656 1071.609375 C 4861.097656 966.070312 4862.875 915.285156 4866.570312 915.285156 C 4869.582031 915.285156 4881.914062 920.15625 4893.980469 926.105469 C 4906.042969 932.054688 4955.855469 954.511719 5004.671875 976.007812 C 5053.488281 997.503906 5104.003906 1019.941406 5116.925781 1025.871094 C 5129.847656 1031.804688 5168.613281 1048.976562 5203.070312 1064.035156 C 5237.53125 1079.09375 5277.472656 1096.730469 5291.828125 1103.230469 C 5332.84375 1121.792969 5355.210938 1131.636719 5422.355469 1160.664062 C 5456.8125 1175.5625 5508.535156 1198.105469 5537.296875 1210.761719 C 5594.117188 1235.765625 5610.9375 1238.785156 5614.546875 1224.632812 C 5617.90625 1211.464844 5618.332031 888.332031 5615.003906 877.433594 C 5613.054688 871.046875 5606.820312 868.296875 5594.296875 868.296875 L 5576.375 868.296875 L 5576.375 1027.539062 C 5576.375 1115.121094 5574.613281 1186.78125 5572.460938 1186.785156 C 5569.035156 1186.789062 5498.714844 1155.792969 5409.671875 1115.027344 C 5394.082031 1107.890625 5357.664062 1092 5328.746094 1079.710938 C 5299.828125 1067.425781 5211.558594 1028.820312 5132.589844 993.921875 C 4914.082031 897.355469 4841.425781 867.296875 4831.234375 869.257812 C 4822.628906 870.910156 4821.746094 883.003906 4819.328125 1032.273438 L 4816.71875 1193.503906 L 4733.183594 1192.433594 C 4686.894531 1191.84375 4647.316406 1189.070312 4644.425781 1186.21875 C 4641.554688 1183.390625 4638.027344 1140.65625 4636.59375 1091.253906 C 4634.117188 1006.027344 4633.230469 999.90625 4619.304688 971.546875 C 4599.542969 931.296875 4556.253906 892.980469 4514.683594 878.945312 C 4484.6875 868.8125 4470.984375 868.296875 4232.257812 868.300781 C 3963.046875 868.304688 3969.695312 867.730469 3918.433594 895.429688 C 3895.75 907.6875 3863.023438 944.820312 3848.011719 975.328125 C 3835.78125 1000.191406 3835.089844 1006.769531 3833.480469 1113.476562 C 3831.941406 1215.664062 3832.601562 1226.109375 3841.003906 1232.253906 C 3852.960938 1241 3856.152344 1240.757812 3866.589844 1230.320312 Z M 3874.441406 1058.863281 C 3868.507812 1051.515625 3875.921875 1010.03125 3886.921875 989.03125 C 3901.753906 960.722656 3939.703125 927.394531 3967.695312 918.097656 C 3989.875 910.730469 4024.320312 909.863281 4243.03125 911.175781 C 4488.074219 912.644531 4493.433594 912.898438 4514.167969 924 C 4562.707031 949.984375 4598.117188 1004.171875 4593.867188 1045.949219 L 4592.214844 1062.183594 L 4235.4375 1063.136719 C 4002.722656 1063.753906 3877.195312 1062.269531 3874.445312 1058.863281 Z M 1590.132812 510.164062 C 1620.5625 496.480469 1673.929688 482.070312 1694.554688 481.964844 C 1711.421875 481.882812 1721.230469 477.253906 1745.550781 457.910156 C 1807.980469 408.253906 1839.886719 299.585938 1819.546875 205.902344 C 1814.789062 183.992188 1809.703125 160.777344 1808.242188 154.316406 C 1805.59375 142.597656 1805.746094 142.570312 1874.070312 142.570312 L 1942.550781 142.570312 L 1942.550781 293.847656 C 1942.550781 445.121094 1942.550781 445.121094 1958.882812 453.566406 C 1967.867188 458.214844 1986.300781 465.304688 1999.851562 469.328125 C 2013.402344 473.355469 2030.84375 482.535156 2038.609375 489.734375 C 2052.542969 502.648438 2054.964844 503.128906 2114.84375 504.894531 L 2133.117188 505.433594 L 2134.492188 324 L 2135.863281 142.570312 L 2221.386719 142.570312 C 2294.550781 142.570312 2307.363281 141.375 2310.074219 134.3125 C 2315.378906 120.488281 2313.621094 28.558594 2307.988281 25.074219 C 2300.875 20.679688 1777.765625 20.457031 1770.664062 24.847656 C 1767.570312 26.757812 1765.039062 39.929688 1765.039062 54.121094 C 1765.039062 68.308594 1763.386719 79.917969 1761.371094 79.917969 C 1759.355469 79.917969 1750.320312 72.761719 1741.292969 64.011719 C 1667.808594 -7.210938 1411.148438 -20.160156 1281.40625 40.808594 C 1249.546875 55.78125 1211.304688 95.953125 1192.3125 134.402344 C 1157.828125 204.210938 1156.824219 317.480469 1190.070312 388.058594 C 1216.628906 444.441406 1269.972656 485.722656 1341.265625 505.074219 C 1405.390625 522.476562 1555.898438 525.554688 1590.132812 510.164062 Z M 1449.503906 392.84375 C 1421.785156 385.933594 1396.667969 365.828125 1382.683594 339.363281 C 1372.902344 320.851562 1371.097656 309.019531 1370.984375 262.652344 C 1370.871094 215.953125 1372.558594 204.644531 1382.371094 186.300781 C 1406.617188 140.96875 1442.144531 124.652344 1509.902344 127.730469 C 1544.519531 129.300781 1553.285156 131.75 1572.742188 145.296875 C 1605.140625 167.851562 1615.808594 192.515625 1617.992188 249.910156 C 1618.980469 275.921875 1617.246094 306.652344 1614.136719 318.199219 C 1606.214844 347.617188 1583.386719 375.488281 1558.808594 385.753906 C 1533.625 396.269531 1477.765625 399.894531 1449.503906 392.84375 Z M 5053.738281 513.113281 C 5126.167969 503.398438 5169.429688 483.203125 5211.636719 439.402344 C 5227.832031 422.59375 5243.53125 408.84375 5246.523438 408.84375 C 5249.515625 408.84375 5257.324219 416.375 5263.878906 425.582031 C 5282.71875 452.035156 5305.027344 470.191406 5338.820312 486.5625 C 5391.511719 512.089844 5416.976562 515.746094 5542.4375 515.8125 C 5637.335938 515.863281 5663.863281 514.195312 5695.046875 506.203125 C 5735.3125 495.882812 5785.675781 469.046875 5804.542969 447.859375 C 5822.523438 427.667969 5826.984375 431.738281 5826.984375 468.328125 C 5826.984375 490.554688 5829.164062 502.328125 5833.511719 503.570312 C 5837.097656 504.59375 5941.0625 504.238281 6064.539062 502.773438 C 6289.042969 500.117188 6289.042969 500.117188 6324.636719 483.363281 C 6383.230469 455.785156 6410.695312 426.945312 6432.902344 369.683594 C 6443.554688 342.21875 6445.085938 329.027344 6445.339844 262.652344 C 6445.601562 194.675781 6444.300781 183.25 6432.597656 150.707031 C 6409.207031 85.644531 6357.261719 42.207031 6286.433594 28.480469 C 6269.832031 25.265625 6167.417969 22.328125 6043.65625 21.515625 L 5829.59375 20.117188 L 5828.050781 55.238281 C 5827.203125 74.554688 5825.226562 90.359375 5823.664062 90.359375 C 5822.097656 90.359375 5808.488281 79.824219 5793.417969 66.949219 C 5748.140625 28.269531 5739.488281 26.246094 5628.644531 28.421875 C 5532.066406 30.316406 5531.992188 30.308594 5526.777344 18.351562 C 5519.699219 2.128906 5507.648438 0.0742188 5456.929688 6.433594 C 5367.414062 17.65625 5293.960938 51.972656 5264.652344 96.265625 C 5257.300781 107.375 5248.105469 116.464844 5244.222656 116.464844 C 5240.335938 116.464844 5230.886719 106.988281 5223.21875 95.402344 C 5187.066406 40.773438 5101.617188 9.066406 4974.90625 3.273438 L 4903.371094 0 L 4865.265625 40.691406 C 4844.308594 63.070312 4823.179688 87.375 4818.3125 94.699219 C 4806.6875 112.183594 4751.6875 158.992188 4746.519531 155.796875 C 4744.304688 154.429688 4741.191406 139.730469 4739.601562 123.140625 C 4736.199219 87.605469 4725.265625 52.828125 4716.597656 49.988281 C 4713.222656 48.882812 4698.164062 60.945312 4683.140625 76.796875 C 4668.117188 92.648438 4653.539062 104.207031 4650.75 102.480469 C 4647.726562 100.613281 4647.007812 84.96875 4648.96875 63.835938 C 4651.320312 38.566406 4650.445312 27.203125 4645.9375 24.417969 C 4636.082031 18.328125 4463.929688 18.902344 4459.953125 25.039062 C 4458.074219 27.941406 4457.363281 64.972656 4458.371094 107.328125 C 4459.382812 149.683594 4458.175781 184.496094 4455.726562 184.691406 C 4427.824219 186.878906 4253.792969 186.535156 4250.152344 184.289062 C 4247.484375 182.636719 4244.644531 145.085938 4243.851562 100.835938 C 4243.851562 100.835938 4247.203125 26.679688 4242.402344 20.386719 C 4238.449219 15.207031 4148.421875 20.390625 4148.421875 20.390625 C 4148.421875 20.390625 4058.738281 14.785156 4054.445312 20.394531 C 4050.09375 26.082031 4053.085938 257.378906 4053.085938 257.378906 C 4052.335938 387.71875 4053.511719 496.113281 4055.695312 498.253906 C 4060.582031 503.046875 4238.492188 505.859375 4243.132812 501.21875 C 4244.972656 499.382812 4246.730469 456.113281 4247.046875 405.066406 L 4247.621094 312.253906 L 4456.460938 312.253906 L 4456.460938 404.492188 C 4456.460938 455.222656 4457.996094 498.265625 4459.871094 500.140625 C 4464.085938 504.355469 4639.085938 505.121094 4645.828125 500.953125 C 4648.511719 499.296875 4649.589844 480.574219 4648.222656 459.316406 C 4646.734375 436.148438 4647.859375 419.386719 4651.027344 417.429688 C 4653.929688 415.632812 4662.757812 422.621094 4670.636719 432.953125 C 4688.597656 456.5 4739.753906 489.914062 4774.554688 500.828125 C 4837.546875 520.582031 4958.402344 525.902344 5053.734375 513.113281 Z M 4884.378906 386.371094 C 4835.46875 362.988281 4819.410156 332.125 4819.359375 261.40625 C 4819.328125 218.128906 4830.746094 178.398438 4848.78125 159.039062 C 4867.703125 138.730469 4902.539062 127.136719 4944.632812 127.136719 C 5030.734375 127.136719 5069.9375 170.402344 5069.9375 265.433594 C 5069.9375 351.359375 5032.203125 392.679688 4949.855469 396.929688 C 4916.628906 398.644531 4906.707031 397.042969 4884.378906 386.371094 Z M 5495.449219 392.023438 C 5450.871094 376.21875 5426.085938 341.738281 5420.285156 287.453125 C 5412.425781 213.894531 5430.402344 165.597656 5474.652344 141.386719 C 5521.28125 115.871094 5604.460938 123.667969 5637.433594 156.636719 C 5660.417969 179.625 5667.742188 205.242188 5667.742188 262.652344 C 5667.742188 311.4375 5666.308594 320.039062 5654.691406 340.765625 C 5640.304688 366.441406 5616.378906 385.054688 5587.429688 393.097656 C 5563.382812 399.777344 5515.75 399.21875 5495.449219 392.023438 Z M 6022.984375 377.863281 C 6020.820312 374.359375 6018.902344 320.570312 6018.722656 258.335938 L 6018.398438 145.179688 L 6098.898438 145.179688 C 6178.339844 145.179688 6179.699219 145.371094 6202.035156 159.886719 C 6243.128906 186.582031 6261 257.507812 6242.242188 319.453125 C 6233.269531 349.085938 6232.601562 349.792969 6200.074219 363.964844 C 6171.203125 376.542969 6158.15625 378.734375 6096.972656 381.300781 C 6044.792969 383.488281 6025.917969 382.613281 6022.984375 377.863281 Z M 357.976562 501.414062 C 481.03125 500.042969 490.027344 499.277344 515.167969 488.015625 C 529.832031 481.445312 550.867188 466.820312 561.910156 455.511719 C 572.953125 444.203125 584.1875 434.949219 586.875 434.949219 C 589.679688 434.949219 590.550781 448.277344 588.921875 466.273438 C 587.359375 483.5 588.019531 498.796875 590.394531 500.261719 C 592.765625 501.730469 635.101562 503.304688 684.476562 503.765625 C 757.4375 504.445312 774.933594 503.210938 777.921875 497.183594 C 779.945312 493.105469 780.261719 460.5625 778.628906 424.863281 C 775.390625 354.1875 779.132812 341.640625 801.234375 349.066406 C 807.265625 351.09375 841.199219 354.210938 876.636719 355.996094 C 958.789062 360.136719 958.355469 359.71875 963.605469 440.078125 C 965.675781 471.765625 968.894531 498.636719 970.757812 499.789062 C 972.625 500.941406 1018.757812 502.570312 1073.277344 503.410156 C 1161.824219 504.773438 1172.582031 504.019531 1174.058594 496.355469 C 1174.964844 491.636719 1172.015625 482.140625 1167.503906 475.25 C 1162.464844 467.566406 1157.25 440.710938 1154.007812 405.761719 C 1151.097656 374.433594 1147.3125 340.578125 1145.59375 330.527344 C 1141.898438 308.9375 1125.828125 280.578125 1114.917969 276.386719 C 1103.140625 271.871094 1105.6875 260 1120.085938 252.296875 C 1137.75 242.84375 1159.367188 210.3125 1165.179688 184.441406 C 1170.800781 159.425781 1164.132812 109.4375 1152.066406 86.101562 C 1140.023438 62.8125 1104.339844 34.765625 1078.46875 28.25 C 1047.492188 20.449219 1023.933594 21 988.332031 30.351562 C 971.867188 34.679688 881.027344 57.214844 786.472656 80.433594 C 691.917969 103.652344 609.285156 124.65625 602.84375 127.105469 C 591.632812 131.367188 591.058594 134.570312 589.414062 201.90625 C 588.472656 240.597656 586.042969 273.90625 584.019531 275.921875 C 581.992188 277.9375 573.152344 272.402344 564.367188 263.617188 C 555.582031 254.835938 543.730469 246.167969 538.027344 244.355469 C 523.738281 239.820312 524.902344 235.128906 545.394531 214.636719 C 575.015625 185.011719 583.832031 124.140625 564.621094 81.839844 C 553.371094 57.058594 519.007812 30.933594 491.113281 25.941406 C 468.605469 21.917969 6.800781 19.5 2.914062 23.386719 C -2.105469 28.410156 -0.121094 499.3125 4.9375 502.445312 C 7.585938 504.089844 58.734375 504.855469 118.601562 504.148438 C 178.46875 503.445312 286.1875 502.210938 357.976562 501.414062 Z M 195.617188 383.964844 C 189.035156 379.554688 182.066406 328.78125 186.46875 317.3125 C 188.894531 310.988281 204.832031 309.644531 277.363281 309.644531 C 371.257812 309.644531 390.046875 313.453125 395.082031 333.503906 C 406.117188 377.476562 383.851562 387.964844 279.660156 387.871094 C 236.585938 387.832031 198.765625 386.074219 195.617188 383.964844 Z M 779.359375 188.253906 L 780.878906 145.179688 L 863.578125 145.179688 C 944.195312 145.179688 946.53125 145.488281 956.25 157.507812 C 971.636719 176.519531 967.382812 214.707031 948.472656 227.332031 C 945.3125 229.441406 905.628906 231.203125 860.285156 231.246094 L 777.84375 231.324219 Z M 187.96875 197.9375 C 184.1875 194.152344 186.3125 149.996094 190.613281 143.039062 C 192.902344 139.335938 221.859375 137.347656 273.585938 137.347656 C 362.011719 137.347656 376.316406 141.578125 376.167969 167.664062 C 376.007812 196.433594 373.445312 197.257812 278.449219 199.023438 C 230.183594 199.921875 189.464844 199.433594 187.96875 197.9375 Z M 2521.097656 500.273438 C 2526.390625 498.269531 2527.789062 478.484375 2527.28125 412.800781 C 2526.917969 366.113281 2526.777344 323.757812 2526.964844 318.671875 C 2527.28125 310.09375 2534.925781 309.527344 2633.03125 310.839844 L 2738.757812 312.253906 L 2736.8125 403.757812 C 2735.253906 477.042969 2736.292969 496.273438 2742.03125 500.347656 C 2746.230469 503.324219 2786.542969 504.792969 2839.3125 503.890625 C 2839.3125 503.890625 2923.566406 508.527344 2929.425781 502.34375 C 2934.316406 497.1875 2928.070312 261.578125 2928.070312 261.578125 C 2928.070312 261.578125 2930.566406 25.164062 2926.710938 20.808594 C 2923.011719 16.625 2832.734375 20.464844 2832.734375 20.464844 C 2832.734375 20.464844 2742.0625 14.566406 2738.757812 20.117188 C 2736.820312 23.367188 2740.414062 74.855469 2740.226562 102.226562 C 2740.03125 129.785156 2739.863281 184.574219 2737.617188 184.859375 C 2709.8125 188.421875 2530.738281 185.742188 2528.113281 181.726562 C 2526.234375 178.855469 2524.695312 141.265625 2524.695312 98.191406 C 2524.695312 98.191406 2524.800781 29.855469 2522.144531 24.464844 C 2519 18.074219 2431.757812 20.574219 2431.757812 20.574219 C 2380.644531 20.957031 2341.269531 17.488281 2336.71875 23.375 C 2331.8125 29.722656 2325.539062 496.375 2335.730469 501.199219 C 2351.367188 508.597656 2509.191406 504.773438 2521.097656 500.273438 Z M 3408.503906 436.253906 C 3409.625 382.921875 3408.4375 367 3403.28125 366.753906 C 3399.609375 366.578125 3354.902344 366.710938 3303.929688 367.054688 C 3242.421875 367.464844 3211.257812 365.835938 3211.257812 362.203125 C 3211.257812 357.757812 3298.527344 298.507812 3339.480469 275.148438 C 3357.113281 265.089844 3354.261719 253.664062 3330.363281 238.613281 C 3265.632812 197.84375 3221.707031 166.046875 3223.34375 161.136719 C 3224.542969 157.546875 3256.921875 155.625 3316.113281 155.625 C 3316.113281 155.625 3400.097656 161.179688 3407.046875 155.625 C 3410.757812 152.65625 3408.503906 86.386719 3408.503906 86.386719 C 3408.503906 86.386719 3414.011719 23.183594 3409.960938 17.152344 C 3406.3125 11.726562 3186.609375 18.515625 3186.609375 18.515625 C 3186.609375 18.515625 2967.671875 13.304688 2963.257812 19.875 C 2958.757812 26.578125 2961.761719 68 2961.761719 68 C 2959.371094 144.707031 2957.414062 141.617188 3047.003906 202.660156 C 3122.109375 253.832031 3137.015625 268.414062 3120.65625 274.691406 C 3107.449219 279.757812 2973.980469 369.222656 2967.34375 377.460938 C 2960.679688 385.726562 2957.859375 484.253906 2963.839844 499.839844 C 2966.703125 507.296875 2989.8125 508.015625 3187.039062 506.796875 C 3187.039062 506.796875 3402.46875 509.488281 3407.046875 505.433594 C 3411.535156 501.453125 3408.5 436.253906 3408.5 436.253906 Z M 3638 500.460938 C 3645.132812 497.726562 3645.769531 488.175781 3642.859375 427.507812 C 3640.304688 374.210938 3641.039062 357.21875 3645.972656 355.660156 C 3649.523438 354.539062 3687.257812 354.886719 3729.824219 356.433594 C 3800.042969 358.984375 3807.78125 360.210938 3813.359375 369.683594 C 3824.132812 387.992188 3826.28125 400.003906 3826.894531 445.390625 C 3827.226562 469.800781 3829.367188 492.714844 3831.648438 496.308594 C 3834.699219 501.117188 3861.65625 503.070312 3933.402344 503.683594 C 3987.082031 504.144531 4032.332031 503.183594 4033.964844 501.554688 C 4035.59375 499.925781 4033.261719 487.792969 4028.78125 474.59375 C 4024.300781 461.394531 4018.425781 421.445312 4015.730469 385.808594 C 4010.457031 316.160156 4003.945312 296.578125 3980.347656 279.386719 C 3965.992188 268.929688 3965.992188 268.929688 3992.789062 243.601562 C 4024.074219 214.035156 4033.582031 187.597656 4029.453125 141.636719 C 4026.488281 108.609375 4005.296875 64.246094 3984.769531 48.101562 C 3955.679688 25.21875 3934.664062 23.371094 3688.097656 21.996094 C 3688.097656 21.996094 3460.949219 14.253906 3454.035156 20.6875 C 3448.238281 26.082031 3452.671875 257.839844 3452.671875 257.839844 C 3451.925781 388.273438 3451.855469 494.457031 3456.199219 500.933594 C 3459.542969 505.917969 3623.449219 506.046875 3638 500.464844 Z M 3640.472656 188.253906 L 3641.992188 145.179688 L 3720.738281 143.742188 C 3794 142.40625 3800.460938 143.070312 3813.414062 153.257812 C 3824.75 162.179688 3827.335938 168.503906 3827.335938 187.328125 C 3827.335938 203.480469 3824.191406 213.589844 3816.894531 220.886719 C 3807.320312 230.460938 3799.492188 231.328125 3722.707031 231.328125 L 3638.957031 231.328125 Z M 3640.472656 188.253906 "/>
</g>
</svg>
